<?xml version="1.0" encoding="utf-8"?>
<!-- Generator: Adobe Illustrator 16.0.0, SVG Export Plug-In . SVG Version: 6.00 Build 0)  -->
<!DOCTYPE svg PUBLIC "-//W3C//DTD SVG 1.1//EN" "http://www.w3.org/Graphics/SVG/1.1/DTD/svg11.dtd">
<svg version="1.1" id="图层_1" xmlns="http://www.w3.org/2000/svg" xmlns:xlink="http://www.w3.org/1999/xlink" x="0px" y="0px"
	 width="226.77px" height="226.77px" viewBox="0 0 226.77 226.77" enable-background="new 0 0 226.77 226.77" xml:space="preserve">
<line fill="none" stroke="#C9CACA" stroke-width="0.5" stroke-miterlimit="1" x1="96.375" y1="58.25" x2="110.158" y2="85.462"/>
<line fill="none" stroke="#DCDDDD" stroke-width="0.5" stroke-miterlimit="1" x1="99.783" y1="95.994" x2="161.341" y2="59.575"/>
<line fill="none" stroke="#C9CACA" stroke-width="0.5" stroke-miterlimit="1" x1="135.222" y1="46.722" x2="117.25" y2="81"/>
<line fill="none" stroke="#C9CACA" stroke-width="0.5" stroke-miterlimit="1" x1="118.5" y1="88.5" x2="144.236" y2="92.33"/>
<line fill="none" stroke="#C9CACA" stroke-width="0.5" stroke-miterlimit="1" x1="115.327" y1="91.5" x2="155.807" y2="108.535"/>
<line fill="none" stroke="#C9CACA" stroke-width="0.5" stroke-miterlimit="1" x1="110.158" y1="100.018" x2="125.539" y2="122.615"/>
<line fill="none" stroke="#C9CACA" stroke-width="0.5" stroke-miterlimit="1" x1="112.282" y1="103.138" x2="112.789" y2="128.289"/>
<line fill="none" stroke="#C9CACA" stroke-width="0.5" stroke-miterlimit="1" x1="106.071" y1="103.138" x2="98.47" y2="117.039"/>
<line fill="none" stroke="#C9CACA" stroke-width="0.5" stroke-miterlimit="1" x1="102.271" y1="97.82" x2="86.788" y2="124.539"/>
<line fill="none" stroke="#C9CACA" stroke-width="0.5" stroke-miterlimit="1" x1="98.47" y1="84.5" x2="79.9" y2="79.5"/>
<line fill="none" stroke="#C9CACA" stroke-width="0.5" stroke-miterlimit="1" x1="98.47" y1="86.989" x2="59.439" y2="84.5"/>
<line fill="none" stroke="#C9CACA" stroke-width="0.5" stroke-miterlimit="1" x1="98.47" y1="89.515" x2="70.4" y2="95.282"/>
<line fill="none" stroke="#C9CACA" stroke-width="0.5" stroke-miterlimit="1" x1="117.25" y1="59.625" x2="110.158" y2="88.5"/>
<line fill="none" x1="96.375" y1="56.875" x2="108.75" y2="86.989"/>
<line fill="none" stroke="#DCDDDD" stroke-width="0.5" stroke-miterlimit="1" x1="102.335" y1="83.66" x2="150.243" y2="133.41"/>
<line fill="none" stroke="#DCDDDD" stroke-width="0.5" stroke-miterlimit="1" x1="104.931" y1="85.462" x2="56.977" y2="115.537"/>
<line fill="#9FA0A0" stroke="#DCDDDD" stroke-width="0.5" stroke-miterlimit="1" x1="106.071" y1="86.989" x2="63.282" y2="50.194"/>
<g>
	<radialGradient id="SVGID_1_" cx="110.1582" cy="90.2046" r="15.2957" gradientUnits="userSpaceOnUse">
		<stop  offset="0.0056" style="stop-color:#BEBFC5"/>
		<stop  offset="0.272" style="stop-color:#BABAB9"/>
		<stop  offset="0.3539" style="stop-color:#B9B8B5"/>
		<stop  offset="0.5249" style="stop-color:#A6AAAA"/>
		<stop  offset="0.6742" style="stop-color:#929A9F"/>
		<stop  offset="1" style="stop-color:#71797E"/>
	</radialGradient>
	<circle fill="url(#SVGID_1_)" cx="110.158" cy="90.205" r="15.296"/>
	<linearGradient id="SVGID_2_" gradientUnits="userSpaceOnUse" x1="110.1587" y1="105.5" x2="110.1587" y2="74.9092">
		<stop  offset="0" style="stop-color:#A6A6A6"/>
		<stop  offset="0.5" style="stop-color:#838383"/>
		<stop  offset="0.5609" style="stop-color:#8D8C8C"/>
		<stop  offset="0.6819" style="stop-color:#9B9B9A"/>
		<stop  offset="0.8181" style="stop-color:#A4A3A3"/>
		<stop  offset="1" style="stop-color:#A6A6A6"/>
	</linearGradient>
	<circle opacity="0.51" fill="url(#SVGID_2_)" cx="110.158" cy="90.205" r="15.296"/>
	<linearGradient id="SVGID_3_" gradientUnits="userSpaceOnUse" x1="110.1577" y1="74.9092" x2="110.1577" y2="105.5">
		<stop  offset="0" style="stop-color:#FFFFFF;stop-opacity:0.77"/>
		<stop  offset="0.2033" style="stop-color:#FFFFFF;stop-opacity:0.65"/>
		<stop  offset="0.3448" style="stop-color:#FFFFFF;stop-opacity:0.65"/>
		<stop  offset="0.3462" style="stop-color:#FFFFFF;stop-opacity:0.65"/>
		<stop  offset="0.511" style="stop-color:#FFFFFF;stop-opacity:0"/>
		<stop  offset="0.5251" style="stop-color:#E0E0E0;stop-opacity:0.0046"/>
		<stop  offset="0.5468" style="stop-color:#B7B7B7;stop-opacity:0.0117"/>
		<stop  offset="0.5712" style="stop-color:#919191;stop-opacity:0.0197"/>
		<stop  offset="0.5977" style="stop-color:#717171;stop-opacity:0.0284"/>
		<stop  offset="0.6271" style="stop-color:#555555;stop-opacity:0.038"/>
		<stop  offset="0.6602" style="stop-color:#3F3F3F;stop-opacity:0.0488"/>
		<stop  offset="0.6989" style="stop-color:#2E2E2E;stop-opacity:0.0615"/>
		<stop  offset="0.7467" style="stop-color:#232323;stop-opacity:0.0771"/>
		<stop  offset="0.8138" style="stop-color:#1C1C1C;stop-opacity:0.0991"/>
		<stop  offset="1" style="stop-color:#1A1A1A;stop-opacity:0.16"/>
	</linearGradient>
	<circle opacity="0.7" fill="url(#SVGID_3_)" cx="110.158" cy="90.205" r="15.296"/>
	<circle fill="none" stroke="#CCCCCC" stroke-width="0.5878" stroke-miterlimit="1" cx="110.158" cy="90.205" r="15.296"/>
	<g opacity="0.58">
		<path fill="#959595" d="M125.454,90.147c-0.814,18.142-26.317,20.433-30.345,2.747c-2.184-9.586,6.127-17.524,15.049-17.924
			c8.601-0.386,14.935,7.256,15.296,15.293C125.453,90.235,125.456,90.183,125.454,90.147c-0.435-9.676-8.438-16.354-18.045-15.052
			c-7.246,0.982-12.547,8.041-12.547,15.11c0,7.043,4.677,12.692,11.23,14.809c9.854,3.183,18.935-5.229,19.362-14.751
			C125.456,90.227,125.453,90.175,125.454,90.147z"/>
	</g>
</g>
<g>
	<radialGradient id="SVGID_4_" cx="155.8066" cy="64.2388" r="10.6707" gradientUnits="userSpaceOnUse">
		<stop  offset="0.0056" style="stop-color:#BEBFC5"/>
		<stop  offset="0.272" style="stop-color:#BABAB9"/>
		<stop  offset="0.3539" style="stop-color:#B9B8B5"/>
		<stop  offset="0.5249" style="stop-color:#A6AAAA"/>
		<stop  offset="0.6742" style="stop-color:#929A9F"/>
		<stop  offset="1" style="stop-color:#71797E"/>
	</radialGradient>
	<circle fill="url(#SVGID_4_)" cx="155.807" cy="64.239" r="10.671"/>
	<linearGradient id="SVGID_5_" gradientUnits="userSpaceOnUse" x1="155.8066" y1="74.9092" x2="155.8066" y2="53.5684">
		<stop  offset="0" style="stop-color:#A6A6A6"/>
		<stop  offset="0.5" style="stop-color:#838383"/>
		<stop  offset="0.5609" style="stop-color:#8D8C8C"/>
		<stop  offset="0.6819" style="stop-color:#9B9B9A"/>
		<stop  offset="0.8181" style="stop-color:#A4A3A3"/>
		<stop  offset="1" style="stop-color:#A6A6A6"/>
	</linearGradient>
	<circle opacity="0.51" fill="url(#SVGID_5_)" cx="155.807" cy="64.239" r="10.671"/>
	<linearGradient id="SVGID_6_" gradientUnits="userSpaceOnUse" x1="155.8066" y1="53.5684" x2="155.8066" y2="74.9092">
		<stop  offset="0" style="stop-color:#FFFFFF;stop-opacity:0.77"/>
		<stop  offset="0.2033" style="stop-color:#FFFFFF;stop-opacity:0.65"/>
		<stop  offset="0.3448" style="stop-color:#FFFFFF;stop-opacity:0.65"/>
		<stop  offset="0.3462" style="stop-color:#FFFFFF;stop-opacity:0.65"/>
		<stop  offset="0.511" style="stop-color:#FFFFFF;stop-opacity:0"/>
		<stop  offset="0.5251" style="stop-color:#E0E0E0;stop-opacity:0.0046"/>
		<stop  offset="0.5468" style="stop-color:#B7B7B7;stop-opacity:0.0117"/>
		<stop  offset="0.5712" style="stop-color:#919191;stop-opacity:0.0197"/>
		<stop  offset="0.5977" style="stop-color:#717171;stop-opacity:0.0284"/>
		<stop  offset="0.6271" style="stop-color:#555555;stop-opacity:0.038"/>
		<stop  offset="0.6602" style="stop-color:#3F3F3F;stop-opacity:0.0488"/>
		<stop  offset="0.6989" style="stop-color:#2E2E2E;stop-opacity:0.0615"/>
		<stop  offset="0.7467" style="stop-color:#232323;stop-opacity:0.0771"/>
		<stop  offset="0.8138" style="stop-color:#1C1C1C;stop-opacity:0.0991"/>
		<stop  offset="1" style="stop-color:#1A1A1A;stop-opacity:0.16"/>
	</linearGradient>
	<circle opacity="0.7" fill="url(#SVGID_6_)" cx="155.807" cy="64.239" r="10.671"/>
	<circle fill="none" stroke="#CCCCCC" stroke-width="0.5878" stroke-miterlimit="1" cx="155.807" cy="64.239" r="10.671"/>
	<g opacity="0.58">
		<path fill="#959595" d="M166.478,64.181c-0.671,12.463-17.794,14.296-21.096,2.287c-1.885-6.854,4.158-12.501,10.425-12.839
			c6.032-0.325,10.371,5.105,10.671,10.668C166.476,64.269,166.479,64.217,166.478,64.181c-0.373-6.931-6.096-11.545-12.96-10.427
			c-4.901,0.799-8.383,5.712-8.383,10.485c0,4.738,2.995,8.499,7.299,10.187c7.01,2.749,13.679-3.345,14.044-10.128
			C166.479,64.261,166.476,64.209,166.478,64.181z"/>
	</g>
</g>
<g>
	<radialGradient id="SVGID_7_" cx="150.2432" cy="133.4102" r="8.5454" gradientUnits="userSpaceOnUse">
		<stop  offset="0.0056" style="stop-color:#BEBFC5"/>
		<stop  offset="0.272" style="stop-color:#BABAB9"/>
		<stop  offset="0.3539" style="stop-color:#B9B8B5"/>
		<stop  offset="0.5249" style="stop-color:#A6AAAA"/>
		<stop  offset="0.6742" style="stop-color:#929A9F"/>
		<stop  offset="1" style="stop-color:#71797E"/>
	</radialGradient>
	<circle fill="url(#SVGID_7_)" cx="150.243" cy="133.41" r="8.546"/>
	<linearGradient id="SVGID_8_" gradientUnits="userSpaceOnUse" x1="150.2432" y1="141.9551" x2="150.2432" y2="124.8643">
		<stop  offset="0" style="stop-color:#A6A6A6"/>
		<stop  offset="0.5" style="stop-color:#838383"/>
		<stop  offset="0.5609" style="stop-color:#8D8C8C"/>
		<stop  offset="0.6819" style="stop-color:#9B9B9A"/>
		<stop  offset="0.8181" style="stop-color:#A4A3A3"/>
		<stop  offset="1" style="stop-color:#A6A6A6"/>
	</linearGradient>
	<circle opacity="0.51" fill="url(#SVGID_8_)" cx="150.243" cy="133.41" r="8.546"/>
	<linearGradient id="SVGID_9_" gradientUnits="userSpaceOnUse" x1="150.2432" y1="124.8643" x2="150.2432" y2="141.9551">
		<stop  offset="0" style="stop-color:#FFFFFF;stop-opacity:0.77"/>
		<stop  offset="0.2033" style="stop-color:#FFFFFF;stop-opacity:0.65"/>
		<stop  offset="0.3448" style="stop-color:#FFFFFF;stop-opacity:0.65"/>
		<stop  offset="0.3462" style="stop-color:#FFFFFF;stop-opacity:0.65"/>
		<stop  offset="0.511" style="stop-color:#FFFFFF;stop-opacity:0"/>
		<stop  offset="0.5251" style="stop-color:#E0E0E0;stop-opacity:0.0046"/>
		<stop  offset="0.5468" style="stop-color:#B7B7B7;stop-opacity:0.0117"/>
		<stop  offset="0.5712" style="stop-color:#919191;stop-opacity:0.0197"/>
		<stop  offset="0.5977" style="stop-color:#717171;stop-opacity:0.0284"/>
		<stop  offset="0.6271" style="stop-color:#555555;stop-opacity:0.038"/>
		<stop  offset="0.6602" style="stop-color:#3F3F3F;stop-opacity:0.0488"/>
		<stop  offset="0.6989" style="stop-color:#2E2E2E;stop-opacity:0.0615"/>
		<stop  offset="0.7467" style="stop-color:#232323;stop-opacity:0.0771"/>
		<stop  offset="0.8138" style="stop-color:#1C1C1C;stop-opacity:0.0991"/>
		<stop  offset="1" style="stop-color:#1A1A1A;stop-opacity:0.16"/>
	</linearGradient>
	<circle opacity="0.7" fill="url(#SVGID_9_)" cx="150.243" cy="133.41" r="8.546"/>
	<circle fill="none" stroke="#CCCCCC" stroke-width="0.5878" stroke-miterlimit="1" cx="150.243" cy="133.41" r="8.546"/>
	<g opacity="0.58">
		<path fill="#959595" d="M158.789,133.352c-0.538,9.981-14.251,11.448-16.895,1.831c-1.507-5.479,3.346-9.988,8.349-10.258
			c4.831-0.261,8.306,4.089,8.546,8.544C158.787,133.44,158.791,133.389,158.789,133.352c-0.299-5.55-4.882-9.246-10.379-8.351
			c-3.934,0.641-6.714,4.582-6.714,8.409c0,3.8,2.392,6.814,5.846,8.17c5.613,2.202,10.955-2.68,11.247-8.111
			C158.791,133.432,158.787,133.38,158.789,133.352z"/>
	</g>
</g>
<g>
	<radialGradient id="SVGID_10_" cx="58.4414" cy="115.6602" r="9.4204" gradientUnits="userSpaceOnUse">
		<stop  offset="0.0056" style="stop-color:#BEBFC5"/>
		<stop  offset="0.272" style="stop-color:#BABAB9"/>
		<stop  offset="0.3539" style="stop-color:#B9B8B5"/>
		<stop  offset="0.5249" style="stop-color:#A6AAAA"/>
		<stop  offset="0.6742" style="stop-color:#929A9F"/>
		<stop  offset="1" style="stop-color:#71797E"/>
	</radialGradient>
	<circle fill="url(#SVGID_10_)" cx="58.441" cy="115.66" r="9.421"/>
	<linearGradient id="SVGID_11_" gradientUnits="userSpaceOnUse" x1="58.4414" y1="125.0801" x2="58.4414" y2="106.2397">
		<stop  offset="0" style="stop-color:#A6A6A6"/>
		<stop  offset="0.5" style="stop-color:#838383"/>
		<stop  offset="0.5609" style="stop-color:#8D8C8C"/>
		<stop  offset="0.6819" style="stop-color:#9B9B9A"/>
		<stop  offset="0.8181" style="stop-color:#A4A3A3"/>
		<stop  offset="1" style="stop-color:#A6A6A6"/>
	</linearGradient>
	<circle opacity="0.51" fill="url(#SVGID_11_)" cx="58.441" cy="115.66" r="9.421"/>
	<linearGradient id="SVGID_12_" gradientUnits="userSpaceOnUse" x1="58.4414" y1="106.2393" x2="58.4414" y2="125.0806">
		<stop  offset="0" style="stop-color:#FFFFFF;stop-opacity:0.77"/>
		<stop  offset="0.2033" style="stop-color:#FFFFFF;stop-opacity:0.65"/>
		<stop  offset="0.3448" style="stop-color:#FFFFFF;stop-opacity:0.65"/>
		<stop  offset="0.3462" style="stop-color:#FFFFFF;stop-opacity:0.65"/>
		<stop  offset="0.511" style="stop-color:#FFFFFF;stop-opacity:0"/>
		<stop  offset="0.5251" style="stop-color:#E0E0E0;stop-opacity:0.0046"/>
		<stop  offset="0.5468" style="stop-color:#B7B7B7;stop-opacity:0.0117"/>
		<stop  offset="0.5712" style="stop-color:#919191;stop-opacity:0.0197"/>
		<stop  offset="0.5977" style="stop-color:#717171;stop-opacity:0.0284"/>
		<stop  offset="0.6271" style="stop-color:#555555;stop-opacity:0.038"/>
		<stop  offset="0.6602" style="stop-color:#3F3F3F;stop-opacity:0.0488"/>
		<stop  offset="0.6989" style="stop-color:#2E2E2E;stop-opacity:0.0615"/>
		<stop  offset="0.7467" style="stop-color:#232323;stop-opacity:0.0771"/>
		<stop  offset="0.8138" style="stop-color:#1C1C1C;stop-opacity:0.0991"/>
		<stop  offset="1" style="stop-color:#1A1A1A;stop-opacity:0.16"/>
	</linearGradient>
	<circle opacity="0.7" fill="url(#SVGID_12_)" cx="58.441" cy="115.66" r="9.421"/>
	<circle fill="none" stroke="#CCCCCC" stroke-width="0.5878" stroke-miterlimit="1" cx="58.441" cy="115.66" r="9.421"/>
	<g opacity="0.58">
		<path fill="#959595" d="M67.862,115.602c-0.593,11.004-15.71,12.621-18.625,2.019c-1.662-6.046,3.68-11.022,9.204-11.32
			c5.326-0.287,9.156,4.508,9.421,9.419C67.861,115.69,67.864,115.639,67.862,115.602c-0.33-6.118-5.381-10.193-11.442-9.205
			c-4.332,0.705-7.4,5.047-7.4,9.264c0,4.187,2.64,7.508,6.444,9c6.188,2.428,12.076-2.953,12.398-8.941
			C67.864,115.682,67.861,115.63,67.862,115.602z"/>
	</g>
</g>
<g>
	<radialGradient id="SVGID_13_" cx="63.2817" cy="50.1938" r="10.8411" gradientUnits="userSpaceOnUse">
		<stop  offset="0.0056" style="stop-color:#BEBFC5"/>
		<stop  offset="0.272" style="stop-color:#BABAB9"/>
		<stop  offset="0.3539" style="stop-color:#B9B8B5"/>
		<stop  offset="0.5249" style="stop-color:#A6AAAA"/>
		<stop  offset="0.6742" style="stop-color:#929A9F"/>
		<stop  offset="1" style="stop-color:#71797E"/>
	</radialGradient>
	<circle fill="url(#SVGID_13_)" cx="63.282" cy="50.194" r="10.841"/>
	<linearGradient id="SVGID_14_" gradientUnits="userSpaceOnUse" x1="63.2817" y1="61.0347" x2="63.2817" y2="39.353">
		<stop  offset="0" style="stop-color:#A6A6A6"/>
		<stop  offset="0.5" style="stop-color:#838383"/>
		<stop  offset="0.5609" style="stop-color:#8D8C8C"/>
		<stop  offset="0.6819" style="stop-color:#9B9B9A"/>
		<stop  offset="0.8181" style="stop-color:#A4A3A3"/>
		<stop  offset="1" style="stop-color:#A6A6A6"/>
	</linearGradient>
	<circle opacity="0.51" fill="url(#SVGID_14_)" cx="63.282" cy="50.194" r="10.841"/>
	<linearGradient id="SVGID_15_" gradientUnits="userSpaceOnUse" x1="63.2817" y1="39.353" x2="63.2817" y2="61.0347">
		<stop  offset="0" style="stop-color:#FFFFFF;stop-opacity:0.77"/>
		<stop  offset="0.2033" style="stop-color:#FFFFFF;stop-opacity:0.65"/>
		<stop  offset="0.3448" style="stop-color:#FFFFFF;stop-opacity:0.65"/>
		<stop  offset="0.3462" style="stop-color:#FFFFFF;stop-opacity:0.65"/>
		<stop  offset="0.511" style="stop-color:#FFFFFF;stop-opacity:0"/>
		<stop  offset="0.5251" style="stop-color:#E0E0E0;stop-opacity:0.0046"/>
		<stop  offset="0.5468" style="stop-color:#B7B7B7;stop-opacity:0.0117"/>
		<stop  offset="0.5712" style="stop-color:#919191;stop-opacity:0.0197"/>
		<stop  offset="0.5977" style="stop-color:#717171;stop-opacity:0.0284"/>
		<stop  offset="0.6271" style="stop-color:#555555;stop-opacity:0.038"/>
		<stop  offset="0.6602" style="stop-color:#3F3F3F;stop-opacity:0.0488"/>
		<stop  offset="0.6989" style="stop-color:#2E2E2E;stop-opacity:0.0615"/>
		<stop  offset="0.7467" style="stop-color:#232323;stop-opacity:0.0771"/>
		<stop  offset="0.8138" style="stop-color:#1C1C1C;stop-opacity:0.0991"/>
		<stop  offset="1" style="stop-color:#1A1A1A;stop-opacity:0.16"/>
	</linearGradient>
	<circle opacity="0.7" fill="url(#SVGID_15_)" cx="63.282" cy="50.194" r="10.841"/>
	<circle fill="none" stroke="#CCCCCC" stroke-width="0.5878" stroke-miterlimit="1" cx="63.282" cy="50.194" r="10.841"/>
	<g opacity="0.58">
		<path fill="#959595" d="M74.123,50.136c-0.682,12.662-18.079,14.524-21.433,2.323c-1.915-6.965,4.223-12.703,10.591-13.046
			c6.129-0.33,10.537,5.187,10.841,10.839C74.122,50.224,74.125,50.172,74.123,50.136c-0.379-7.042-6.193-11.73-13.167-10.594
			c-4.979,0.811-8.516,5.803-8.516,10.652c0,4.813,3.043,8.633,7.415,10.348c7.122,2.793,13.897-3.398,14.268-10.29
			C74.125,50.216,74.122,50.165,74.123,50.136z"/>
	</g>
</g>
<text transform="matrix(1 0 0 1 97.5015 92.3296)" fill="#09355D" font-family="'BritannicBold'" font-size="7">FindInfo</text>
<text transform="matrix(1 0 0 1 57.2817 48.2847)" fill="#083359" font-family="'DFPLiJinHeiW8'" font-size="6">腾讯</text>
<text transform="matrix(1 0 0 1 149.8066 62.6704)" fill="#083359" font-family="'DFPLiJinHeiW8'" font-size="6">新浪</text>
<text transform="matrix(1 0 0 1 57.2817 55.8643)" fill="#083359" font-family="'DFPLiJinHeiW8'" font-size="6">新闻</text>
<text transform="matrix(1 0 0 1 149.8066 68.75)" fill="#083359" font-family="'DFPLiJinHeiW8'" font-size="6">新闻</text>
<text transform="matrix(1 0 0 1 53.25 114.5801)" fill="#083359" font-family="'DFPLiJinHeiW8'" font-size="5">凤凰</text>
<text transform="matrix(1 0 0 1 53.25 120.5801)" fill="#083359" font-family="'DFPLiJinHeiW8'" font-size="5">资讯</text>
<text transform="matrix(1 0 0 1 143.4932 135.4102)" fill="#083359" font-family="'DFPLiJinHeiW8'" font-size="4.5">人民网</text>
<line fill="none" stroke="#DCDDDD" stroke-width="0.5" stroke-miterlimit="1" x1="147.523" y1="67.75" x2="146.774" y2="67.75"/>
<circle fill="#C9CACA" cx="96.375" cy="56.875" r="4.625"/>
<circle fill="#C9CACA" cx="117.25" cy="59.625" r="2.75"/>
<circle fill="#C9CACA" cx="135.222" cy="46.722" r="3.472"/>
<circle fill="#C9CACA" cx="157.716" cy="108.535" r="3.625"/>
<circle fill="#C9CACA" cx="144.236" cy="92.743" r="2.539"/>
<circle fill="#C9CACA" cx="86.788" cy="124.539" r="2.538"/>
<circle fill="#C9CACA" cx="98.469" cy="117.039" r="2.538"/>
<circle fill="#C9CACA" cx="112.789" cy="128.289" r="2.539"/>
<circle fill="#C9CACA" cx="125.539" cy="122.615" r="2.539"/>
<circle fill="#C9CACA" cx="70.401" cy="95.282" r="2.538"/>
<circle fill="#C9CACA" cx="59.439" cy="84.5" r="1.5"/>
<circle fill="#C9CACA" cx="79.9" cy="79.5" r="1.5"/>
</svg>
